<svg xmlns="http://www.w3.org/2000/svg" viewBox="0 0 100 100">
  <rect width="100" height="100" fill="#FFD100"/>
  <!-- Concha Shell com 7 segmentos reais -->
  <g transform="translate(50,52) scale(0.72)">
    <!-- Segmentos vermelhos da concha Shell -->
    <path d="M0,-55 L-18,0 L18,0 Z" fill="#DD1D21"/>
    <path d="M-18,0 C-52,-10 -58,-35 -48,-52 L-18,-20 Z" fill="#DD1D21"/>
    <path d="M18,0 C52,-10 58,-35 48,-52 L18,-20 Z" fill="#DD1D21"/>
    <path d="M-48,-52 C-30,-62 -10,-58 0,-55 L-18,-20 Z" fill="#DD1D21"/>
    <path d="M48,-52 C30,-62 10,-58 0,-55 L18,-20 Z" fill="#DD1D21"/>
    <path d="M-18,0 C-30,12 -28,28 -18,38 L0,20 Z" fill="#DD1D21"/>
    <path d="M18,0 C30,12 28,28 18,38 L0,20 Z" fill="#DD1D21"/>
    <!-- Faixa amarela central -->
    <ellipse cx="0" cy="-10" rx="22" ry="26" fill="#FFD100"/>
    <!-- Ponto inferior arredondado -->
    <ellipse cx="0" cy="32" rx="18" ry="10" fill="#DD1D21"/>
  </g>
</svg>